# This file uses centimeters as units for non-parametric coordinates.

mtllib BeachOverworld.mtl
g default
v -2.823137 -0.052538 11.900241
v 21.251824 -3.906359 11.900237
v -0.215580 0.514666 11.900214
v 21.251824 1.589568 11.900214
v -0.215582 0.514666 -12.057312
v 21.251824 1.585627 -12.057312
v -2.823137 -0.052538 -12.057286
v 21.251824 -3.906359 -12.057287
v 10.010896 1.632160 -12.057312
v 10.010896 -0.037521 -12.057287
v 10.010896 -0.049795 11.900237
v 10.010896 1.635419 11.900214
vt 0.000000 0.000000
vt 1.000000 0.000000
vt 0.000000 1.000000
vt 1.000000 1.000000
vt 0.000000 2.000000
vt 1.000000 2.000000
vt 0.000000 3.000000
vt 1.000000 3.000000
vt 0.000000 4.000000
vt 1.000000 4.000000
vt 2.000000 0.000000
vt 2.000000 1.000000
vt -1.000000 0.000000
vt -1.000000 1.000000
vt 0.826800 2.000000
vt 0.826800 3.000000
vt 0.826800 0.000000
vt 0.826800 4.000000
vt 0.826800 1.000000
vn -0.000001 0.000023 1.000000
vn 0.000001 0.000010 1.000000
vn 0.000001 0.000010 1.000000
vn -0.000001 0.000023 1.000000
vn -0.108784 0.994065 -0.000068
vn -0.049917 0.998753 -0.000111
vn -0.049918 0.998753 -0.000111
vn -0.108784 0.994065 -0.000068
vn 0.000001 -0.000024 -1.000000
vn -0.000001 -0.000011 -1.000000
vn -0.000001 -0.000010 -1.000000
vn 0.000001 -0.000024 -1.000000
vn 0.000692 -1.000000 -0.000256
vn -0.158055 -0.987430 -0.000253
vn -0.158072 -0.987428 -0.000253
vn 0.000692 -1.000000 -0.000256
vn 1.000000 -0.000000 0.000000
vn 1.000000 -0.000000 0.000000
vn 1.000000 -0.000000 0.000000
vn 1.000000 -0.000000 0.000000
vn -0.212553 0.977150 0.000000
vn -0.212553 0.977150 0.000000
vn -0.212553 0.977150 0.000000
vn -0.212553 0.977150 0.000000
vn -0.000001 -0.000007 -1.000000
vn -0.000001 -0.000007 -1.000000
vn -0.324977 -0.945722 -0.000242
vn -0.324977 -0.945722 -0.000242
vn 0.000001 0.000006 1.000000
vn 0.000001 0.000006 1.000000
vn 0.004109 0.999992 -0.000150
vn 0.004109 0.999992 -0.000150
s 1
g pCube1
usemtl lambert3SG
f 1/1/1 11/17/2 12/19/3 3/3/4
s 2
f 3/3/5 12/19/6 9/15/7 5/5/8
s 3
f 5/5/9 9/15/10 10/16/11 7/7/12
s 4
f 7/7/13 10/16/14 11/18/15 1/9/16
s off
f 2/2/17 8/11/18 6/12/19 4/4/20
f 7/13/21 1/1/22 3/3/23 5/14/24
s 3
f 9/15/10 6/6/25 8/8/26 10/16/11
s 4
f 11/18/15 10/16/14 8/8/27 2/10/28
s 1
f 12/19/3 11/17/2 2/2/29 4/4/30
s 2
f 9/15/7 12/19/6 4/4/31 6/6/32
g default
v -30.325426 -0.000000 11.884033
v -25.735017 -0.000000 11.884033
v -21.144608 -0.000000 11.884033
v -16.554197 -0.000000 11.884033
v -11.963788 -0.000000 11.884033
v -7.373379 -0.000000 11.884033
v -2.782968 -0.000000 11.884033
v 1.807440 -0.000000 11.884033
v 6.397850 -0.000000 11.884033
v 10.988261 -0.000000 11.884033
v 15.578669 -0.000000 11.884033
v -30.325426 -0.000000 9.495751
v -25.735017 -0.000000 9.495751
v -21.144608 -0.000000 9.495751
v -16.554197 -0.000000 9.495751
v -11.963788 -0.000000 9.495751
v -7.373379 -0.000000 9.495751
v -2.782968 -0.000000 9.495751
v 1.807440 -0.000000 9.495751
v 6.397850 -0.000000 9.495751
v 10.988261 -0.000000 9.495751
v 15.578669 -0.000000 9.495751
v -30.325426 -0.000000 7.107468
v -25.735017 -0.000000 7.107468
v -21.144608 -0.000000 7.107468
v -16.554197 -0.000000 7.107468
v -11.963788 -0.000000 7.107468
v -7.373379 -0.000000 7.107468
v -2.782968 -0.000000 7.107468
v 1.807440 -0.000000 7.107468
v 6.397850 -0.000000 7.107468
v 10.988261 -0.000000 7.107468
v 15.578669 -0.000000 7.107468
v -30.325426 -0.000000 4.719185
v -25.735017 -0.000000 4.719185
v -21.144608 -0.000000 4.719185
v -16.554197 -0.000000 4.719185
v -11.963788 -0.000000 4.719185
v -7.373379 -0.000000 4.719185
v -2.782968 -0.000000 4.719185
v 1.807440 -0.000000 4.719185
v 6.397850 -0.000000 4.719185
v 10.988261 -0.000000 4.719185
v 15.578669 -0.000000 4.719185
v -30.325426 -0.000000 2.330903
v -25.735017 -0.000000 2.330903
v -21.144608 -0.000000 2.330903
v -16.554197 -0.000000 2.330903
v -11.963788 -0.000000 2.330903
v -7.373379 -0.000000 2.330903
v -2.782968 -0.000000 2.330903
v 1.807440 -0.000000 2.330903
v 6.397850 -0.000000 2.330903
v 10.988261 -0.000000 2.330903
v 15.578669 -0.000000 2.330903
v -30.325426 0.000000 -0.057379
v -25.735017 0.000000 -0.057379
v -21.144608 0.000000 -0.057379
v -16.554197 0.000000 -0.057379
v -11.963788 0.000000 -0.057379
v -7.373379 0.000000 -0.057379
v -2.782968 0.000000 -0.057379
v 1.807440 0.000000 -0.057379
v 6.397850 0.000000 -0.057379
v 10.988261 0.000000 -0.057379
v 15.578669 0.000000 -0.057379
v -30.325426 0.000000 -2.445662
v -25.735017 0.000000 -2.445662
v -21.144608 0.000000 -2.445662
v -16.554197 0.000000 -2.445662
v -11.963788 0.000000 -2.445662
v -7.373379 0.000000 -2.445662
v -2.782968 0.000000 -2.445662
v 1.807440 0.000000 -2.445662
v 6.397850 0.000000 -2.445662
v 10.988261 0.000000 -2.445662
v 15.578669 0.000000 -2.445662
v -30.325426 0.000000 -4.833944
v -25.735017 0.000000 -4.833944
v -21.144608 0.000000 -4.833944
v -16.554197 0.000000 -4.833944
v -11.963788 0.000000 -4.833944
v -7.373379 0.000000 -4.833944
v -2.782968 0.000000 -4.833944
v 1.807440 0.000000 -4.833944
v 6.397850 0.000000 -4.833944
v 10.988261 0.000000 -4.833944
v 15.578669 0.000000 -4.833944
v -30.325426 0.000000 -7.222226
v -25.735017 0.000000 -7.222226
v -21.144608 0.000000 -7.222226
v -16.554197 0.000000 -7.222226
v -11.963788 0.000000 -7.222226
v -7.373379 0.000000 -7.222226
v -2.782968 0.000000 -7.222226
v 1.807440 0.000000 -7.222226
v 6.397850 0.000000 -7.222226
v 10.988261 0.000000 -7.222226
v 15.578669 0.000000 -7.222226
v -30.325426 0.000000 -9.610509
v -25.735017 0.000000 -9.610509
v -21.144608 0.000000 -9.610509
v -16.554197 0.000000 -9.610509
v -11.963788 0.000000 -9.610509
v -7.373379 0.000000 -9.610509
v -2.782968 0.000000 -9.610509
v 1.807440 0.000000 -9.610509
v 6.397850 0.000000 -9.610509
v 10.988261 0.000000 -9.610509
v 15.578669 0.000000 -9.610509
v -30.325426 0.000000 -11.998791
v -25.735017 0.000000 -11.998791
v -21.144608 0.000000 -11.998791
v -16.554197 0.000000 -11.998791
v -11.963788 0.000000 -11.998791
v -7.373379 0.000000 -11.998791
v -2.782968 0.000000 -11.998791
v 1.807440 0.000000 -11.998791
v 6.397850 0.000000 -11.998791
v 10.988261 0.000000 -11.998791
v 15.578669 0.000000 -11.998791
vt 0.000000 0.000000
vt 0.100000 0.000000
vt 0.200000 0.000000
vt 0.300000 0.000000
vt 0.400000 0.000000
vt 0.500000 0.000000
vt 0.600000 0.000000
vt 0.700000 0.000000
vt 0.800000 0.000000
vt 0.900000 0.000000
vt 1.000000 0.000000
vt 0.000000 0.100000
vt 0.100000 0.100000
vt 0.200000 0.100000
vt 0.300000 0.100000
vt 0.400000 0.100000
vt 0.500000 0.100000
vt 0.600000 0.100000
vt 0.700000 0.100000
vt 0.800000 0.100000
vt 0.900000 0.100000
vt 1.000000 0.100000
vt 0.000000 0.200000
vt 0.100000 0.200000
vt 0.200000 0.200000
vt 0.300000 0.200000
vt 0.400000 0.200000
vt 0.500000 0.200000
vt 0.600000 0.200000
vt 0.700000 0.200000
vt 0.800000 0.200000
vt 0.900000 0.200000
vt 1.000000 0.200000
vt 0.000000 0.300000
vt 0.100000 0.300000
vt 0.200000 0.300000
vt 0.300000 0.300000
vt 0.400000 0.300000
vt 0.500000 0.300000
vt 0.600000 0.300000
vt 0.700000 0.300000
vt 0.800000 0.300000
vt 0.900000 0.300000
vt 1.000000 0.300000
vt 0.000000 0.400000
vt 0.100000 0.400000
vt 0.200000 0.400000
vt 0.300000 0.400000
vt 0.400000 0.400000
vt 0.500000 0.400000
vt 0.600000 0.400000
vt 0.700000 0.400000
vt 0.800000 0.400000
vt 0.900000 0.400000
vt 1.000000 0.400000
vt 0.000000 0.500000
vt 0.100000 0.500000
vt 0.200000 0.500000
vt 0.300000 0.500000
vt 0.400000 0.500000
vt 0.500000 0.500000
vt 0.600000 0.500000
vt 0.700000 0.500000
vt 0.800000 0.500000
vt 0.900000 0.500000
vt 1.000000 0.500000
vt 0.000000 0.600000
vt 0.100000 0.600000
vt 0.200000 0.600000
vt 0.300000 0.600000
vt 0.400000 0.600000
vt 0.500000 0.600000
vt 0.600000 0.600000
vt 0.700000 0.600000
vt 0.800000 0.600000
vt 0.900000 0.600000
vt 1.000000 0.600000
vt 0.000000 0.700000
vt 0.100000 0.700000
vt 0.200000 0.700000
vt 0.300000 0.700000
vt 0.400000 0.700000
vt 0.500000 0.700000
vt 0.600000 0.700000
vt 0.700000 0.700000
vt 0.800000 0.700000
vt 0.900000 0.700000
vt 1.000000 0.700000
vt 0.000000 0.800000
vt 0.100000 0.800000
vt 0.200000 0.800000
vt 0.300000 0.800000
vt 0.400000 0.800000
vt 0.500000 0.800000
vt 0.600000 0.800000
vt 0.700000 0.800000
vt 0.800000 0.800000
vt 0.900000 0.800000
vt 1.000000 0.800000
vt 0.000000 0.900000
vt 0.100000 0.900000
vt 0.200000 0.900000
vt 0.300000 0.900000
vt 0.400000 0.900000
vt 0.500000 0.900000
vt 0.600000 0.900000
vt 0.700000 0.900000
vt 0.800000 0.900000
vt 0.900000 0.900000
vt 1.000000 0.900000
vt 0.000000 1.000000
vt 0.100000 1.000000
vt 0.200000 1.000000
vt 0.300000 1.000000
vt 0.400000 1.000000
vt 0.500000 1.000000
vt 0.600000 1.000000
vt 0.700000 1.000000
vt 0.800000 1.000000
vt 0.900000 1.000000
vt 1.000000 1.000000
vn 0.000000 1.000000 0.000000
vn 0.000000 1.000000 0.000000
vn 0.000000 1.000000 0.000000
vn 0.000000 1.000000 0.000000
vn 0.000000 1.000000 0.000000
vn 0.000000 1.000000 0.000000
vn 0.000000 1.000000 0.000000
vn 0.000000 1.000000 0.000000
vn 0.000000 1.000000 0.000000
vn 0.000000 1.000000 0.000000
vn 0.000000 1.000000 0.000000
vn 0.000000 1.000000 0.000000
vn 0.000000 1.000000 0.000000
vn 0.000000 1.000000 0.000000
vn 0.000000 1.000000 0.000000
vn 0.000000 1.000000 0.000000
vn 0.000000 1.000000 0.000000
vn 0.000000 1.000000 0.000000
vn 0.000000 1.000000 0.000000
vn 0.000000 1.000000 0.000000
vn 0.000000 1.000000 0.000000
vn 0.000000 1.000000 0.000000
vn 0.000000 1.000000 0.000000
vn 0.000000 1.000000 0.000000
vn 0.000000 1.000000 0.000000
vn 0.000000 1.000000 0.000000
vn 0.000000 1.000000 0.000000
vn 0.000000 1.000000 0.000000
vn 0.000000 1.000000 0.000000
vn 0.000000 1.000000 0.000000
vn 0.000000 1.000000 0.000000
vn 0.000000 1.000000 0.000000
vn 0.000000 1.000000 0.000000
vn 0.000000 1.000000 0.000000
vn 0.000000 1.000000 0.000000
vn 0.000000 1.000000 0.000000
vn 0.000000 1.000000 0.000000
vn 0.000000 1.000000 0.000000
vn 0.000000 1.000000 0.000000
vn 0.000000 1.000000 0.000000
vn 0.000000 1.000000 0.000000
vn 0.000000 1.000000 0.000000
vn 0.000000 1.000000 0.000000
vn 0.000000 1.000000 0.000000
vn 0.000000 1.000000 0.000000
vn 0.000000 1.000000 0.000000
vn 0.000000 1.000000 0.000000
vn 0.000000 1.000000 0.000000
vn 0.000000 1.000000 0.000000
vn 0.000000 1.000000 0.000000
vn 0.000000 1.000000 0.000000
vn 0.000000 1.000000 0.000000
vn 0.000000 1.000000 0.000000
vn 0.000000 1.000000 0.000000
vn 0.000000 1.000000 0.000000
vn 0.000000 1.000000 0.000000
vn 0.000000 1.000000 0.000000
vn 0.000000 1.000000 0.000000
vn 0.000000 1.000000 0.000000
vn 0.000000 1.000000 0.000000
vn 0.000000 1.000000 0.000000
vn 0.000000 1.000000 0.000000
vn 0.000000 1.000000 0.000000
vn 0.000000 1.000000 0.000000
vn 0.000000 1.000000 0.000000
vn 0.000000 1.000000 0.000000
vn 0.000000 1.000000 0.000000
vn 0.000000 1.000000 0.000000
vn 0.000000 1.000000 0.000000
vn 0.000000 1.000000 0.000000
vn 0.000000 1.000000 0.000000
vn 0.000000 1.000000 0.000000
vn 0.000000 1.000000 0.000000
vn 0.000000 1.000000 0.000000
vn 0.000000 1.000000 0.000000
vn 0.000000 1.000000 0.000000
vn 0.000000 1.000000 0.000000
vn 0.000000 1.000000 0.000000
vn 0.000000 1.000000 0.000000
vn 0.000000 1.000000 0.000000
vn 0.000000 1.000000 0.000000
vn 0.000000 1.000000 0.000000
vn 0.000000 1.000000 0.000000
vn 0.000000 1.000000 0.000000
vn 0.000000 1.000000 0.000000
vn 0.000000 1.000000 0.000000
vn 0.000000 1.000000 0.000000
vn 0.000000 1.000000 0.000000
vn 0.000000 1.000000 0.000000
vn 0.000000 1.000000 0.000000
vn 0.000000 1.000000 0.000000
vn 0.000000 1.000000 0.000000
vn 0.000000 1.000000 0.000000
vn 0.000000 1.000000 0.000000
vn 0.000000 1.000000 0.000000
vn 0.000000 1.000000 0.000000
vn 0.000000 1.000000 0.000000
vn 0.000000 1.000000 0.000000
vn 0.000000 1.000000 0.000000
vn 0.000000 1.000000 0.000000
vn 0.000000 1.000000 0.000000
vn 0.000000 1.000000 0.000000
vn 0.000000 1.000000 0.000000
vn 0.000000 1.000000 0.000000
vn 0.000000 1.000000 0.000000
vn 0.000000 1.000000 0.000000
vn 0.000000 1.000000 0.000000
vn 0.000000 1.000000 0.000000
vn 0.000000 1.000000 0.000000
vn 0.000000 1.000000 0.000000
vn 0.000000 1.000000 0.000000
vn 0.000000 1.000000 0.000000
vn 0.000000 1.000000 0.000000
vn 0.000000 1.000000 0.000000
vn 0.000000 1.000000 0.000000
vn 0.000000 1.000000 0.000000
vn 0.000000 1.000000 0.000000
vn 0.000000 1.000000 0.000000
vn 0.000000 1.000000 0.000000
vn 0.000000 1.000000 0.000000
vn 0.000000 1.000000 0.000000
s 1
g pPlane1
usemtl lambert2SG
f 13/20/33 14/21/34 25/32/35 24/31/36
f 14/21/34 15/22/37 26/33/38 25/32/35
f 15/22/37 16/23/39 27/34/40 26/33/38
f 16/23/39 17/24/41 28/35/42 27/34/40
f 17/24/41 18/25/43 29/36/44 28/35/42
f 18/25/43 19/26/45 30/37/46 29/36/44
f 19/26/45 20/27/47 31/38/48 30/37/46
f 20/27/47 21/28/49 32/39/50 31/38/48
f 21/28/49 22/29/51 33/40/52 32/39/50
f 22/29/51 23/30/53 34/41/54 33/40/52
f 24/31/36 25/32/35 36/43/55 35/42/56
f 25/32/35 26/33/38 37/44/57 36/43/55
f 26/33/38 27/34/40 38/45/58 37/44/57
f 27/34/40 28/35/42 39/46/59 38/45/58
f 28/35/42 29/36/44 40/47/60 39/46/59
f 29/36/44 30/37/46 41/48/61 40/47/60
f 30/37/46 31/38/48 42/49/62 41/48/61
f 31/38/48 32/39/50 43/50/63 42/49/62
f 32/39/50 33/40/52 44/51/64 43/50/63
f 33/40/52 34/41/54 45/52/65 44/51/64
f 35/42/56 36/43/55 47/54/66 46/53/67
f 36/43/55 37/44/57 48/55/68 47/54/66
f 37/44/57 38/45/58 49/56/69 48/55/68
f 38/45/58 39/46/59 50/57/70 49/56/69
f 39/46/59 40/47/60 51/58/71 50/57/70
f 40/47/60 41/48/61 52/59/72 51/58/71
f 41/48/61 42/49/62 53/60/73 52/59/72
f 42/49/62 43/50/63 54/61/74 53/60/73
f 43/50/63 44/51/64 55/62/75 54/61/74
f 44/51/64 45/52/65 56/63/76 55/62/75
f 46/53/67 47/54/66 58/65/77 57/64/78
f 47/54/66 48/55/68 59/66/79 58/65/77
f 48/55/68 49/56/69 60/67/80 59/66/79
f 49/56/69 50/57/70 61/68/81 60/67/80
f 50/57/70 51/58/71 62/69/82 61/68/81
f 51/58/71 52/59/72 63/70/83 62/69/82
f 52/59/72 53/60/73 64/71/84 63/70/83
f 53/60/73 54/61/74 65/72/85 64/71/84
f 54/61/74 55/62/75 66/73/86 65/72/85
f 55/62/75 56/63/76 67/74/87 66/73/86
f 57/64/78 58/65/77 69/76/88 68/75/89
f 58/65/77 59/66/79 70/77/90 69/76/88
f 59/66/79 60/67/80 71/78/91 70/77/90
f 60/67/80 61/68/81 72/79/92 71/78/91
f 61/68/81 62/69/82 73/80/93 72/79/92
f 62/69/82 63/70/83 74/81/94 73/80/93
f 63/70/83 64/71/84 75/82/95 74/81/94
f 64/71/84 65/72/85 76/83/96 75/82/95
f 65/72/85 66/73/86 77/84/97 76/83/96
f 66/73/86 67/74/87 78/85/98 77/84/97
f 68/75/89 69/76/88 80/87/99 79/86/100
f 69/76/88 70/77/90 81/88/101 80/87/99
f 70/77/90 71/78/91 82/89/102 81/88/101
f 71/78/91 72/79/92 83/90/103 82/89/102
f 72/79/92 73/80/93 84/91/104 83/90/103
f 73/80/93 74/81/94 85/92/105 84/91/104
f 74/81/94 75/82/95 86/93/106 85/92/105
f 75/82/95 76/83/96 87/94/107 86/93/106
f 76/83/96 77/84/97 88/95/108 87/94/107
f 77/84/97 78/85/98 89/96/109 88/95/108
f 79/86/100 80/87/99 91/98/110 90/97/111
f 80/87/99 81/88/101 92/99/112 91/98/110
f 81/88/101 82/89/102 93/100/113 92/99/112
f 82/89/102 83/90/103 94/101/114 93/100/113
f 83/90/103 84/91/104 95/102/115 94/101/114
f 84/91/104 85/92/105 96/103/116 95/102/115
f 85/92/105 86/93/106 97/104/117 96/103/116
f 86/93/106 87/94/107 98/105/118 97/104/117
f 87/94/107 88/95/108 99/106/119 98/105/118
f 88/95/108 89/96/109 100/107/120 99/106/119
f 90/97/111 91/98/110 102/109/121 101/108/122
f 91/98/110 92/99/112 103/110/123 102/109/121
f 92/99/112 93/100/113 104/111/124 103/110/123
f 93/100/113 94/101/114 105/112/125 104/111/124
f 94/101/114 95/102/115 106/113/126 105/112/125
f 95/102/115 96/103/116 107/114/127 106/113/126
f 96/103/116 97/104/117 108/115/128 107/114/127
f 97/104/117 98/105/118 109/116/129 108/115/128
f 98/105/118 99/106/119 110/117/130 109/116/129
f 99/106/119 100/107/120 111/118/131 110/117/130
f 101/108/122 102/109/121 113/120/132 112/119/133
f 102/109/121 103/110/123 114/121/134 113/120/132
f 103/110/123 104/111/124 115/122/135 114/121/134
f 104/111/124 105/112/125 116/123/136 115/122/135
f 105/112/125 106/113/126 117/124/137 116/123/136
f 106/113/126 107/114/127 118/125/138 117/124/137
f 107/114/127 108/115/128 119/126/139 118/125/138
f 108/115/128 109/116/129 120/127/140 119/126/139
f 109/116/129 110/117/130 121/128/141 120/127/140
f 110/117/130 111/118/131 122/129/142 121/128/141
f 112/119/133 113/120/132 124/131/143 123/130/144
f 113/120/132 114/121/134 125/132/145 124/131/143
f 114/121/134 115/122/135 126/133/146 125/132/145
f 115/122/135 116/123/136 127/134/147 126/133/146
f 116/123/136 117/124/137 128/135/148 127/134/147
f 117/124/137 118/125/138 129/136/149 128/135/148
f 118/125/138 119/126/139 130/137/150 129/136/149
f 119/126/139 120/127/140 131/138/151 130/137/150
f 120/127/140 121/128/141 132/139/152 131/138/151
f 121/128/141 122/129/142 133/140/153 132/139/152
g default
v -32.932574 -0.082573 12.315671
v -30.471499 -0.082573 12.315671
v -18.736765 27.436136 12.315671
v -16.275690 27.436140 12.315671
v -18.736765 27.436136 -12.315671
v -16.275690 27.436136 -12.315671
v -32.932574 -0.082573 -12.315671
v -30.471499 -0.082573 -12.315671
vt 0.000000 0.000000
vt 1.000000 0.000000
vt 0.000000 1.000000
vt 1.000000 1.000000
vt 0.000000 2.000000
vt 1.000000 2.000000
vt 0.000000 3.000000
vt 1.000000 3.000000
vt 0.000000 4.000000
vt 1.000000 4.000000
vt 2.000000 0.000000
vt 2.000000 1.000000
vt -1.000000 0.000000
vt -1.000000 1.000000
vn 0.000000 0.000000 1.000000
vn 0.000000 0.000000 1.000000
vn 0.000000 0.000000 1.000000
vn 0.000000 0.000000 1.000000
vn -0.000001 1.000000 -0.000000
vn -0.000001 1.000000 -0.000000
vn -0.000001 1.000000 -0.000000
vn -0.000001 1.000000 -0.000000
vn 0.000000 0.000000 -1.000000
vn 0.000000 0.000000 -1.000000
vn 0.000000 0.000000 -1.000000
vn 0.000000 0.000000 -1.000000
vn 0.000000 -1.000000 0.000000
vn 0.000000 -1.000000 0.000000
vn 0.000000 -1.000000 0.000000
vn 0.000000 -1.000000 0.000000
vn 0.888718 -0.458454 0.000000
vn 0.888718 -0.458454 0.000000
vn 0.888718 -0.458454 0.000000
vn 0.888718 -0.458454 0.000000
vn -0.888718 0.458454 0.000000
vn -0.888718 0.458454 0.000000
vn -0.888718 0.458454 0.000000
vn -0.888718 0.458454 0.000000
s off
g pCube2
usemtl lambert4SG
f 134/141/154 135/142/155 137/144/156 136/143/157
f 136/143/158 137/144/159 139/146/160 138/145/161
f 138/145/162 139/146/163 141/148/164 140/147/165
f 140/147/166 141/148/167 135/150/168 134/149/169
f 135/142/170 141/151/171 139/152/172 137/144/173
f 140/153/174 134/141/175 136/143/176 138/154/177
